<svg xmlns="http://www.w3.org/2000/svg" viewBox="-9.49996 -9.8013 420 478.6">
	<path d="M 5.3377 336.558 L 53.6893 366.085 L 343.866 209.036 L 341.239 315.907 L 199.136 394.727 L 199.386 452.496 L 352.507 366.76 C 376.053 353.924 390.966 329.502 391.625 302.695 L 396.021 119.439 L 5.3377 336.558 Z M 347.678 91.8475 L 57.501 248.897 L 60.1284 142.026 L 202.231 63.2052 L 201.98 5.4368 L 48.8516 91.1719 C 25.3055 104.008 10.3922 128.43 9.7332 155.238 L 5.3377 338.493 L 396.029 121.374 L 347.678 91.8475 Z M 150.443 365.584 L 150.192 426.239 L 196.509 453.455 L 196.676 392.842 L 150.443 365.584 Z M 203.574 6.2542 L 203.323 66.9085 L 249.64 94.1329 L 249.807 33.5202 L 203.574 6.2542 Z M 105.819 224.758 L 106.07 173.237 L 59.7531 146.847 L 59.2527 250.565 L 105.819 224.758 Z M 295.689 284.996 L 295.448 233.474 L 341.764 207.084 L 342.256 310.802 L 295.689 284.996 Z M 108.013 174.755 L 252.618 95.9344 L 203.398 65.7657 L 58.6938 144.645 L 108.013 174.755 Z M 293.821 284.003 L 149.217 362.824 L 198.427 392.992 L 343.14 314.113 L 293.821 284.003 Z M 397.197 113.617 L 397.155 113.592 L 348.253 84.983 C 347.236 84.3825 346.068 84.0655 344.884 84.0655 C 343.699 84.0655 342.598 84.3658 341.597 84.933 L 114.661 213.34 L 114.853 179.393 L 254.486 99.838 L 254.561 99.7963 L 255.212 99.4376 L 255.445 99.1874 C 255.604 99.0623 255.804 98.8955 256.004 98.6953 C 256.229 98.4701 256.404 98.2532 256.53 98.0864 C 256.68 97.9029 256.863 97.661 257.047 97.3524 V 97.3357 L 257.072 97.3191 C 257.222 97.0688 257.322 96.8436 257.389 96.6601 C 257.764 95.8177 257.964 94.9253 257.964 94.0078 L 258.298 36.2227 C 258.314 33.8455 257.047 31.6269 254.995 30.4258 L 204.875 1.1079 C 203.857 0.5073 202.69 0.1987 201.505 0.1987 C 200.321 0.1987 199.195 0.5073 198.186 1.0829 C 197.668 1.3831 197.193 1.7418 196.776 2.1672 L 42.7964 89.8958 C 17.5071 104.309 1.6929 131.341 1.5261 160.451 L 0.5002 339.586 C 0.4835 341.963 1.7513 344.182 3.8031 345.383 L 3.8448 345.408 L 52.747 374.017 C 53.7645 374.617 54.9323 374.934 56.1167 374.934 C 57.301 374.934 58.402 374.634 59.4029 374.067 L 286.34 245.66 L 286.148 279.607 L 147.549 358.57 H 146.798 L 145.605 359.763 C 145.43 359.896 145.213 360.071 144.996 360.288 C 144.763 360.522 144.588 360.738 144.462 360.905 C 144.312 361.089 144.129 361.331 143.945 361.639 C 143.787 361.914 143.67 362.165 143.603 362.331 C 143.228 363.174 143.028 364.075 143.028 364.992 L 142.694 422.769 C 142.678 425.146 143.945 427.365 145.997 428.566 L 196.117 457.884 C 197.143 458.484 198.302 458.793 199.487 458.793 C 200.671 458.793 201.797 458.484 202.806 457.909 C 203.324 457.617 203.799 457.25 204.216 456.824 L 358.196 369.096 C 383.485 354.683 399.307 327.65 399.466 298.541 L 400.492 119.406 C 400.508 117.028 399.241 114.81 397.189 113.609 L 397.197 113.617 Z M 71.6723 146.405 L 201.472 72.4468 L 237.971 93.891 L 108.247 167.799 L 71.6723 146.405 Z M 194.774 60.9115 L 55.024 140.533 C 52.9555 141.709 51.671 143.919 51.6543 146.296 L 51.0454 252.033 V 253.209 V 253.951 L 51.0871 254.101 C 51.2873 255.886 52.2132 257.521 53.6311 258.63 L 53.7896 258.789 L 54.3484 259.114 C 54.3484 259.114 54.3651 259.122 54.3734 259.131 L 54.4819 259.197 L 54.5319 259.222 C 55.5078 259.748 56.6004 260.031 57.7181 260.031 C 58.8358 260.031 60.0118 259.731 61.0127 259.164 L 111.224 230.672 C 111.416 230.563 111.583 230.455 111.725 230.355 L 344.825 98.4451 L 380.432 119.28 L 13.9122 328.101 L 14.8714 160.517 C 15.0132 136.162 28.2417 113.542 49.4106 101.481 L 194.841 18.6319 V 47 L 194.774 60.9115 Z M 64.4491 241.748 L 64.9245 157.923 L 101.499 179.318 L 101.257 220.913 L 64.4408 241.748 H 64.4491 Z M 208.195 47.6245 L 208.361 18.6069 L 244.936 40.0094 L 244.694 82.364 L 208.195 60.9281 V 47.6329 V 47.6245 Z M 329.328 312.595 L 199.528 386.553 L 163.029 365.109 L 292.754 291.201 L 329.328 312.595 Z M 206.226 398.097 L 345.976 318.476 C 348.045 317.299 349.329 315.089 349.346 312.712 L 349.955 205.691 C 349.963 203.606 348.987 201.638 347.361 200.378 L 347.202 200.22 L 346.644 199.894 L 346.36 199.727 L 346.252 199.686 C 345.326 199.227 344.308 198.985 343.274 198.985 C 342.123 198.985 340.98 199.285 339.979 199.853 L 289.768 228.345 C 289.576 228.453 289.409 228.562 289.267 228.662 L 56.1667 360.555 L 20.5598 339.72 L 387.088 130.891 L 386.129 298.466 C 385.987 322.821 372.759 345.441 351.59 357.502 L 206.159 440.36 V 411.292 L 206.226 398.08 V 398.097 Z M 336.551 217.252 L 336.067 301.077 L 299.493 279.682 L 299.735 238.087 L 336.551 217.252 Z M 192.806 411.359 L 192.639 440.393 L 156.065 418.999 L 156.306 376.644 L 192.806 398.08 V 411.359 Z M 5.4866 8.8723 C 5.9255 8.6193 6.4218 8.4921 6.9753 8.4921 C 7.4674 8.4921 7.9175 8.5774 8.3257 8.7465 C 8.7325 8.9157 9.0749 9.1701 9.3517 9.5084 L 11.3353 7.5248 C 10.7817 6.9097 10.1359 6.4442 9.3979 6.1297 C 8.6598 5.8152 7.8518 5.6572 6.9753 5.6572 C 5.8361 5.6572 4.8142 5.9116 3.907 6.4191 C 2.9998 6.9265 2.2841 7.6226 1.7613 8.5075 C 1.2385 9.3924 0.9771 10.3876 0.9771 11.4948 C 0.9771 12.6019 1.2385 13.5524 1.7613 14.4359 C 2.2841 15.3207 2.9998 16.0197 3.907 16.5355 C 4.8142 17.0513 5.8291 17.3085 6.953 17.3085 C 7.8448 17.3085 8.664 17.1436 9.4104 16.8123 C 10.1569 16.4824 10.7985 16.0085 11.3367 15.3934 L 9.3993 13.4322 C 9.0917 13.7705 8.738 14.0291 8.3383 14.2052 C 7.9385 14.3828 7.4842 14.4708 6.9767 14.4708 C 6.4232 14.4708 5.9269 14.3408 5.488 14.078 C 5.0491 13.8166 4.7066 13.463 4.4619 13.017 C 4.2159 12.5711 4.0929 12.0553 4.0929 11.471 C 4.0929 10.8867 4.2159 10.3709 4.4619 9.9249 C 4.708 9.479 5.0505 9.1296 5.488 8.8751 L 5.4866 8.8723 Z" stroke="#7c3aed" stroke-width="10" fill="#fff"/>
</svg>